<svg class="logo" width="160px" height="57px" viewBox="0 0 160 57" version="1.1" xmlns="http://www.w3.org/2000/svg" xmlns:xlink="http://www.w3.org/1999/xlink">
          <defs></defs>
          <g id="Page-1" stroke="none" stroke-width="1" fill="none" fill-rule="evenodd">
              <g id="Full-Site-Mock-Copy-3" transform="translate(-66.000000, -30.000000)">
                  <g id="Group" transform="translate(66.000000, 30.000000)">
                      <path d="M24.934,20.96 C24.663332,21.0720006 24.4813338,21.2866651 24.388,21.604 C24.2946662,21.9213349 24.248,22.4346631 24.248,23.144 L24.248,37.032 C24.248,37.7413369 24.2993328,38.2546651 24.402,38.572 C24.5046672,38.8893349 24.6866654,39.1039994 24.948,39.216 C25.2093346,39.3280006 25.6386637,39.4026665 26.236,39.44 L26.236,40 C25.0973276,39.9439997 23.4453442,39.916 21.28,39.916 C19.021322,39.916 17.3600053,39.9439997 16.296,40 L16.296,39.44 C16.9680034,39.4026665 17.4579985,39.3280006 17.766,39.216 C18.0740015,39.1039994 18.2839994,38.8893349 18.396,38.572 C18.5080006,38.2546651 18.564,37.7413369 18.564,37.032 L18.564,22.724 L11.816,39.972 L11.368,39.972 L3.472,21.996 L3.472,34.512 C3.472,35.8933402 3.52799944,36.8873303 3.64,37.494 C3.75200056,38.1006697 3.99933142,38.5439986 4.382,38.824 C4.76466858,39.1040014 5.40399552,39.3093327 6.3,39.44 L6.3,40 C5.53466284,39.9439997 4.48933996,39.916 3.164,39.916 C2.17466172,39.916 1.4000028,39.9439997 0.84,40 L0.84,39.44 C1.41866956,39.3093327 1.8479986,39.108668 2.128,38.838 C2.4080014,38.567332 2.5946662,38.1520028 2.688,37.592 C2.7813338,37.0319972 2.828,36.1920056 2.828,35.072 L2.828,23.144 C2.828,22.4346631 2.77666718,21.9213349 2.674,21.604 C2.57133282,21.2866651 2.38933464,21.0720006 2.128,20.96 C1.86666536,20.8479994 1.43733632,20.7733335 0.84,20.736 L0.84,20.176 C1.4000028,20.2320003 2.17466172,20.26 3.164,20.26 C5.4040112,20.26 7.33599188,20.2320003 8.96,20.176 L14.252,32.076 L18.844,20.26 L21.28,20.26 C23.4453442,20.26 25.0973276,20.2320003 26.236,20.176 L26.236,20.736 C25.6386637,20.7733335 25.204668,20.8479994 24.934,20.96 Z M28.546,39.23 C27.9393303,38.5859968 27.636,37.7786715 27.636,36.808 C27.636,35.9679958 27.8553311,35.2726694 28.294,34.722 C28.7326689,34.1713306 29.2506637,33.7466682 29.848,33.448 C30.4453363,33.1493318 31.2199952,32.8413349 32.172,32.524 C33.180005,32.1879983 33.917331,31.8800014 34.384,31.6 C34.850669,31.3199986 35.084,30.9280025 35.084,30.424 L35.084,27.932 C35.084,27.3346637 34.9346682,26.802669 34.636,26.336 C34.3373318,25.869331 33.8240036,25.636 33.096,25.636 C32.5173304,25.636 31.994669,25.7946651 31.528,26.112 C32.1626698,26.3360011 32.6339985,26.6673311 32.942,27.106 C33.2500015,27.5446689 33.404,28.034664 33.404,28.576 C33.404,29.3040036 33.1473359,29.8873311 32.634,30.326 C32.1206641,30.7646689 31.5000036,30.984 30.772,30.984 C30.0439964,30.984 29.4700021,30.7553356 29.05,30.298 C28.6299979,29.8406644 28.42,29.2573369 28.42,28.548 C28.42,27.9879972 28.5599986,27.5026687 28.84,27.092 C29.1200014,26.6813313 29.5586637,26.3080017 30.156,25.972 C31.2013386,25.3746637 32.694657,25.076 34.636,25.076 C35.6626718,25.076 36.5493296,25.173999 37.296,25.37 C38.0426704,25.566001 38.6773307,25.934664 39.2,26.476 C39.5733352,26.868002 39.8206661,27.3579971 39.942,27.946 C40.0633339,28.5340029 40.124,29.3506614 40.124,30.396 L40.124,37.9 C40.124,38.366669 40.1566663,38.6839992 40.222,38.852 C40.2873337,39.0200008 40.4039992,39.104 40.572,39.104 C40.7026673,39.104 40.8426659,39.0620004 40.992,38.978 C41.1413341,38.8939996 41.2813327,38.7960006 41.412,38.684 L41.692,39.16 C40.8893293,39.8506701 39.7413408,40.196 38.248,40.196 C37.1279944,40.196 36.3440022,40.0046686 35.896,39.622 C35.4479978,39.2393314 35.2053335,38.7213366 35.168,38.068 C34.2906623,39.4866738 32.9840087,40.196 31.248,40.196 C30.0533274,40.196 29.1526697,39.8740032 28.546,39.23 Z M35.084,37.48 L35.084,31.572 C34.9159992,31.8520014 34.6080022,32.2159978 34.16,32.664 C33.6559975,33.1493358 33.2733346,33.6206644 33.012,34.078 C32.7506654,34.5353356 32.62,35.1559961 32.62,35.94 C32.62,37.2840067 33.0959952,37.956 34.048,37.956 C34.440002,37.956 34.7853318,37.7973349 35.084,37.48 Z M58.128,38.432 C58.2586673,38.6746679 58.3939993,38.8753325 58.534,39.034 C58.6740007,39.1926675 58.8279992,39.3186662 58.996,39.412 L58.996,40 C57.2786581,39.925333 56.149336,39.888 55.608,39.888 C54.9919969,39.888 53.6760101,39.925333 51.66,40 L51.66,39.412 C52.201336,39.412 52.472,39.2346684 52.472,38.88 C52.472,38.7493327 52.434667,38.6093341 52.36,38.46 L49.896,33.252 C49.7839994,33.0466656 49.6580007,32.8973338 49.518,32.804 C49.3779993,32.7106662 49.2053344,32.6546668 49,32.636 L49,37.396 C49,38.1613372 49.1166655,38.6886652 49.35,38.978 C49.5833345,39.2673348 49.9893304,39.412 50.568,39.412 L50.568,40 C48.5519899,39.925333 47.2266698,39.888 46.592,39.888 C45.9573302,39.888 44.5573442,39.925333 42.392,40 L42.392,39.412 C42.9706696,39.412 43.3766655,39.2673348 43.61,38.978 C43.8433345,38.6886652 43.96,38.1613372 43.96,37.396 L43.96,21.464 C43.96,20.605329 43.8433345,19.980002 43.61,19.588 C43.3766655,19.195998 42.9706696,19 42.392,19 L42.392,18.412 C42.9706696,18.4680003 43.5493304,18.496 44.128,18.496 C46.069343,18.496 47.6933268,18.3653346 49,18.104 L49,32.104 C49.5226693,32.104 49.9239986,31.9640014 50.204,31.684 L52.36,29.668 C53.0133366,29.0706637 53.34,28.4640031 53.34,27.848 C53.34,27.3626642 53.1300021,26.9520017 52.71,26.616 C52.2899979,26.2799983 51.7533366,26.0840003 51.1,26.028 L51.1,25.468 C52.1640053,25.5240003 53.2839941,25.552 54.46,25.552 C56.2893425,25.552 57.5679964,25.5240003 58.296,25.468 L58.296,26.028 C57.0079936,26.3826684 55.626674,27.297326 54.152,28.772 L53.424,29.5 L57.876,37.956 C57.9133335,38.030667 57.9973327,38.1893321 58.128,38.432 Z M71.652,35.464 L72.128,35.632 C71.7173313,36.9386732 71.0220049,38.058662 70.042,38.992 C69.0619951,39.925338 67.8066743,40.392 66.276,40.392 C64.3159902,40.392 62.7480059,39.7853394 61.572,38.572 C60.3959941,37.3586606 59.808,35.4173467 59.808,32.748 C59.808,30.1906539 60.4659934,28.2726731 61.782,26.994 C63.0980066,25.7153269 64.8386558,25.076 67.004,25.076 C70.5320176,25.076 72.296,27.1666458 72.296,31.348 L65.072,31.348 C65.0533332,31.5720011 65.044,31.9079978 65.044,32.356 C65.044,34.148009 65.3566635,35.4266628 65.982,36.192 C66.6073365,36.9573372 67.3679955,37.34 68.264,37.34 C69.6266735,37.34 70.7559955,36.7146729 71.652,35.464 Z M64.96,30.816 L68.208,30.816 C68.2266668,29.3226592 68.1193345,28.1000048 67.886,27.148 C67.6526655,26.1959952 67.2933358,25.72 66.808,25.72 C65.7626614,25.72 65.1466676,27.4186497 64.96,30.816 Z M85.806,25.916 C86.2073353,26.4760028 86.408,27.1386628 86.408,27.904 C86.408,28.7440042 86.1700024,29.4113309 85.694,29.906 C85.2179976,30.4006691 84.5973372,30.648 83.832,30.648 C83.0293293,30.648 82.4133355,30.4660018 81.984,30.102 C81.5546645,29.7379982 81.34,29.2480031 81.34,28.632 C81.34,27.5306612 81.8159952,26.6626698 82.768,26.028 C82.4319983,26.028 82.1333346,26.0933327 81.872,26.224 C81.405331,26.4293344 81.0133349,26.7606644 80.696,27.218 C80.3786651,27.6753356 80.22,28.174664 80.22,28.716 L80.22,37.116 C80.22,37.9933377 80.4019982,38.5953317 80.766,38.922 C81.1300018,39.2486683 81.7506623,39.412 82.628,39.412 L82.628,40 C82.3853321,40 82.1800008,39.9906668 82.012,39.972 C80.0519902,39.9159997 78.7453366,39.888 78.092,39.888 C77.5133304,39.888 76.2160101,39.9159997 74.2,39.972 C74.0506659,39.9906668 73.8546679,40 73.612,40 L73.612,39.412 C74.1906696,39.412 74.5966655,39.2673348 74.83,38.978 C75.0633345,38.6886652 75.18,38.1613372 75.18,37.396 L75.18,28.52 C75.18,27.661329 75.0633345,27.036002 74.83,26.644 C74.5966655,26.251998 74.1906696,26.056 73.612,26.056 L73.612,25.468 C74.2093363,25.5240003 74.7879972,25.552 75.348,25.552 C77.289343,25.552 78.9133268,25.4213346 80.22,25.16 L80.22,27.176 C80.9293369,25.775993 82.1333248,25.076 83.832,25.076 C84.7466712,25.076 85.4046647,25.3559972 85.806,25.916 Z M98.91,26 C99.7033373,26.541336 100.323998,27.3346614 100.772,28.38 C101.220002,29.4253386 101.444,30.6759927 101.444,32.132 C101.444,33.5693405 101.215336,34.9133271 100.758,36.164 C100.300664,37.4146729 99.5913381,38.4319961 98.63,39.216 C97.6686619,40.0000039 96.4693405,40.392 95.032,40.392 C94.3226631,40.392 93.6786696,40.2520014 93.1,39.972 C92.5213304,39.6919986 92.0733349,39.3280022 91.756,38.88 L91.756,42.464 C91.756,43.2293372 91.9799978,43.7566652 92.428,44.046 C92.8760022,44.3353348 93.5479955,44.48 94.444,44.48 L94.444,45.068 L93.8,45.04 C92.0639913,44.9839997 90.9346693,44.956 90.412,44.956 C89.9639978,44.956 88.9560078,44.993333 87.388,45.068 L87.388,44.48 C88.0786701,44.48 88.559332,44.3540013 88.83,44.102 C89.100668,43.8499987 89.236,43.3973366 89.236,42.744 L89.236,28.632 C89.236,27.773329 89.0773349,27.148002 88.76,26.756 C88.4426651,26.363998 87.8920039,26.168 87.108,26.168 L87.108,25.58 C87.6866696,25.6360003 88.2653304,25.664 88.844,25.664 C90.0200059,25.664 90.9906628,25.5333346 91.756,25.272 L91.756,28.24 C92.1666687,27.2693285 92.7639961,26.5180027 93.548,25.986 C94.3320039,25.4539973 95.227995,25.188 96.236,25.188 C97.2253383,25.188 98.1166627,25.458664 98.91,26 Z M98.728,32.524 C98.728,28.1933117 97.6453442,26.028 95.48,26.028 C94.6399958,26.028 93.8840034,26.3313303 93.212,26.938 C92.5399966,27.5446697 92.0546682,28.4173276 91.756,29.556 L91.756,37.956 C92.0173346,38.497336 92.3999975,38.9313317 92.904,39.258 C93.4080025,39.5846683 94.0146631,39.748 94.724,39.748 C97.3933467,39.748 98.728,37.3400241 98.728,32.524 Z M104.706,39.314 C104.136664,38.7259971 103.852,37.9093386 103.852,36.864 C103.852,36.0239958 104.080664,35.333336 104.538,34.792 C104.995336,34.250664 105.536664,33.8213349 106.162,33.504 C106.787336,33.1866651 107.613328,32.8506684 108.64,32.496 C109.685339,32.1413316 110.459997,31.8146682 110.964,31.516 C111.468003,31.2173318 111.72,30.8160025 111.72,30.312 L111.72,28.576 C111.72,27.4933279 111.491336,26.7513353 111.034,26.35 C110.576664,25.9486647 109.937337,25.748 109.116,25.748 C107.809327,25.748 106.885336,26.0839966 106.344,26.756 C106.717335,26.8493338 107.029999,27.0453318 107.282,27.344 C107.534001,27.6426682 107.66,28.0159978 107.66,28.464 C107.66,28.930669 107.510668,29.299332 107.212,29.57 C106.913332,29.840668 106.530669,29.976 106.064,29.976 C105.541331,29.976 105.149335,29.8126683 104.888,29.486 C104.626665,29.1593317 104.496,28.762669 104.496,28.296 C104.496,27.8479978 104.603332,27.4746682 104.818,27.176 C105.032668,26.8773318 105.354665,26.5786682 105.784,26.28 C106.232002,25.9626651 106.80133,25.7013344 107.492,25.496 C108.18267,25.2906656 108.938663,25.188 109.76,25.188 C111.216007,25.188 112.31733,25.5333299 113.064,26.224 C113.530669,26.6533355 113.843333,27.1713303 114.002,27.778 C114.160667,28.3846697 114.24,29.1826617 114.24,30.172 L114.24,37.956 C114.24,38.422669 114.305333,38.7586656 114.436,38.964 C114.566667,39.1693344 114.790665,39.272 115.108,39.272 C115.332001,39.272 115.541999,39.2206672 115.738,39.118 C115.934001,39.0153328 116.143999,38.8706676 116.368,38.684 L116.676,39.16 C116.190664,39.5333352 115.775335,39.7993325 115.43,39.958 C115.084665,40.1166675 114.650669,40.196 114.128,40.196 C113.231996,40.196 112.606668,39.9720022 112.252,39.524 C111.897332,39.0759978 111.72,38.4693372 111.72,37.704 C111.159997,38.637338 110.516004,39.2859982 109.788,39.65 C109.059996,40.0140018 108.238671,40.196 107.324,40.196 C106.147994,40.196 105.275336,39.9020029 104.706,39.314 Z M111.72,36.948 L111.72,31.46 C111.551999,31.7213346 111.318668,31.9359992 111.02,32.104 C110.721332,32.2720008 110.264003,32.4959986 109.648,32.776 C108.938663,33.0746682 108.364669,33.359332 107.926,33.63 C107.487331,33.900668 107.109335,34.269331 106.792,34.736 C106.474665,35.202669 106.316,35.7999964 106.316,36.528 C106.316,37.3680042 106.521331,38.0026645 106.932,38.432 C107.342669,38.8613355 107.883997,39.076 108.556,39.076 C109.788006,39.076 110.842662,38.3666738 111.72,36.948 Z M129.122,26 C129.915337,26.541336 130.535998,27.3346614 130.984,28.38 C131.432002,29.4253386 131.656,30.6759927 131.656,32.132 C131.656,33.5693405 131.427336,34.9133271 130.97,36.164 C130.512664,37.4146729 129.803338,38.4319961 128.842,39.216 C127.880662,40.0000039 126.681341,40.392 125.244,40.392 C124.534663,40.392 123.89067,40.2520014 123.312,39.972 C122.73333,39.6919986 122.285335,39.3280022 121.968,38.88 L121.968,42.464 C121.968,43.2293372 122.191998,43.7566652 122.64,44.046 C123.088002,44.3353348 123.759996,44.48 124.656,44.48 L124.656,45.068 L124.012,45.04 C122.275991,44.9839997 121.146669,44.956 120.624,44.956 C120.175998,44.956 119.168008,44.993333 117.6,45.068 L117.6,44.48 C118.29067,44.48 118.771332,44.3540013 119.042,44.102 C119.312668,43.8499987 119.448,43.3973366 119.448,42.744 L119.448,28.632 C119.448,27.773329 119.289335,27.148002 118.972,26.756 C118.654665,26.363998 118.104004,26.168 117.32,26.168 L117.32,25.58 C117.89867,25.6360003 118.47733,25.664 119.056,25.664 C120.232006,25.664 121.202663,25.5333346 121.968,25.272 L121.968,28.24 C122.378669,27.2693285 122.975996,26.5180027 123.76,25.986 C124.544004,25.4539973 125.439995,25.188 126.448,25.188 C127.437338,25.188 128.328663,25.458664 129.122,26 Z M128.94,32.524 C128.94,28.1933117 127.857344,26.028 125.692,26.028 C124.851996,26.028 124.096003,26.3313303 123.424,26.938 C122.751997,27.5446697 122.266668,28.4173276 121.968,29.556 L121.968,37.956 C122.229335,38.497336 122.611997,38.9313317 123.116,39.258 C123.620003,39.5846683 124.226663,39.748 124.936,39.748 C127.605347,39.748 128.94,37.3400241 128.94,32.524 Z M145.936,36.64 C145.599998,37.6666718 144.970005,38.548663 144.046,39.286 C143.121995,40.023337 142.006673,40.392 140.7,40.392 C139.37466,40.392 138.226672,40.0886697 137.256,39.482 C136.285328,38.8753303 135.543336,38.0260055 135.03,36.934 C134.516664,35.8419945 134.26,34.5773405 134.26,33.14 C134.26,31.5159919 134.521331,30.1066726 135.044,28.912 C135.566669,27.7173274 136.303995,26.7980032 137.256,26.154 C138.208005,25.5099968 139.31866,25.188 140.588,25.188 C142.268008,25.188 143.560662,25.6966616 144.466,26.714 C145.371338,27.7313384 145.824,29.2759896 145.824,31.348 L137.06,31.348 C137.004,31.8706693 136.976,32.4679966 136.976,33.14 C136.976,34.3720062 137.176665,35.4453288 137.578,36.36 C137.979335,37.2746712 138.51133,37.9793309 139.174,38.474 C139.83667,38.9686691 140.531996,39.216 141.26,39.216 C142.156004,39.216 142.94933,39.0013355 143.64,38.572 C144.33067,38.1426645 144.909331,37.424005 145.376,36.416 L145.936,36.64 Z M138.208,27.008 C137.57333,27.866671 137.181334,29.1359916 137.032,30.816 L143.136,30.816 C143.173334,29.3599927 142.963336,28.1466715 142.506,27.176 C142.048664,26.2053285 141.372004,25.72 140.476,25.72 C139.598662,25.72 138.84267,26.149329 138.208,27.008 Z M158.494,25.832 C158.970002,26.2613355 159.208,26.7839969 159.208,27.4 C159.208,27.8853358 159.063335,28.3006649 158.774,28.646 C158.484665,28.9913351 158.097336,29.164 157.612,29.164 C157.201331,29.164 156.851335,29.0333346 156.562,28.772 C156.272665,28.5106654 156.128,28.1560022 156.128,27.708 C156.128,27.0919969 156.44533,26.588002 157.08,26.196 C156.949333,26.0093324 156.753335,25.916 156.492,25.916 C155.763996,25.916 155.101336,26.2006638 154.504,26.77 C153.906664,27.3393362 153.440002,28.0346626 153.104,28.856 C152.767998,29.6773374 152.6,30.4519964 152.6,31.18 L152.6,37.116 C152.6,37.974671 152.847331,38.5719983 153.342,38.908 C153.836669,39.2440017 154.578662,39.412 155.568,39.412 L155.568,40 L154.896,39.972 C152.99199,39.9159997 151.778669,39.888 151.256,39.888 C150.770664,39.888 149.669342,39.925333 147.952,40 L147.952,39.412 C148.736004,39.412 149.286665,39.2673348 149.604,38.978 C149.921335,38.6886652 150.08,38.1613372 150.08,37.396 L150.08,28.632 C150.08,27.773329 149.921335,27.148002 149.604,26.756 C149.286665,26.363998 148.736004,26.168 147.952,26.168 L147.952,25.58 C148.549336,25.6360003 149.127997,25.664 149.688,25.664 C150.864006,25.664 151.834663,25.5333346 152.6,25.272 L152.6,28.772 C152.936002,27.838662 153.472663,27.0080036 154.21,26.28 C154.947337,25.5519964 155.763996,25.188 156.66,25.188 C157.40667,25.188 158.017998,25.4026645 158.494,25.832 Z" id="Makerpaper" fill="#232326"></path>
                      <path d="M5.5,56.5 L26.5,0.5" id="Line-4" stroke="#565659" stroke-width="0.5" fill="#D8D8D8" stroke-linecap="round"></path>
                  </g>
              </g>
          </g>
      </svg>