<?xml version="1.0" encoding="UTF-8"?>
<svg width="1024px" height="2696px" viewBox="0 0 1024 2696" version="1.1" xmlns="http://www.w3.org/2000/svg" xmlns:xlink="http://www.w3.org/1999/xlink">
    <!-- Generator: Sketch 51.3 (57544) - http://www.bohemiancoding.com/sketch -->
    <title>bg</title>
    <desc>Created with Sketch.</desc>
    <defs></defs>
    <g id="Page-1" stroke="none" stroke-width="1" fill="none" fill-rule="evenodd">
        <g id="Full-Site-Mock-Copy-3">
            <g id="bg" transform="translate(-195.000000, -187.000000)">
                <path d="M164.405545,106.044695 C246.010718,24.2903152 429.373377,-47.9239073 517.629479,40.4935624 C605.885581,128.911032 659.077744,264.544454 563.705188,327.07019 C497.448613,370.507646 476.091517,378.226255 466.23774,419.881655 C461.454143,440.103609 430.849696,509.531774 323.803113,501.710711 C188.257325,491.807433 201.004962,414.648412 128.208964,358.665932 C55.4129667,302.683451 82.8003727,187.799074 164.405545,106.044695 Z" id="Rectangle-Copy-7" fill="#FDDEDE" opacity="0.518191964"></path>
                <path d="M120.656822,1895.70538 C166.08316,1850.18965 262.999282,1846.48005 312.127927,1895.70538 C361.256572,1944.93071 354.703839,2014.81002 337.776433,2055.25336 C320.849027,2095.69671 219.225039,2174.16388 166.24501,2174.16388 C113.264981,2174.16388 114.266116,2110.68812 84.2706701,2087.5533 C54.2752244,2064.41847 75.2304831,1941.22112 120.656822,1895.70538 Z" id="Rectangle-Copy-9" fill="#FEEEEE" transform="translate(210.259243, 2017.163877) rotate(50.000000) translate(-210.259243, -2017.163877) "></path>
                <path d="M1135.18869,2777.28068 C1210.21168,2725.18965 1318.26927,2734.32671 1386.76377,2802.956 C1455.25827,2871.58529 1446.12254,2969.01009 1422.52257,3025.39566 C1398.92261,3081.78123 1119.90565,3117.74012 1046.0416,3117.74012 C972.177555,3117.74012 1138.40953,3063.63254 1077.74373,3027.84389 C1012.25555,2989.21038 1036.73155,2945.95623 1045.1938,2904.75683 C1050.27712,2880.00814 1063.25412,2827.22732 1135.18869,2777.28068 Z" id="Rectangle-Copy-8" fill="#FDDEDE" opacity="0.518191964" transform="translate(1233.331510, 2930.823919) rotate(50.000000) translate(-1233.331510, -2930.823919) "></path>
                <path d="M976.478433,376.922618 C1038.88564,314.291528 1177.26839,331.046219 1231.22016,376.922618 C1285.17194,422.799018 1276.20801,513.722302 1212.52257,577.636208 C1148.83714,641.550113 1124.07943,606.306538 1061.36769,552.981349 C998.655946,499.656161 914.07123,439.553709 976.478433,376.922618 Z" id="Rectangle-Copy-3" fill="#F7F6F0" transform="translate(1110.593458, 473.992586) rotate(10.000000) translate(-1110.593458, -473.992586) "></path>
                <path d="M237.08754,707 C337.601143,707 347.190964,837.956359 337.601143,895.198783 C328.011321,952.441207 230.220831,980.639896 85.114302,920.175258 C-59.9922266,859.710619 136.573937,707 237.08754,707 Z" id="Rectangle-Copy-4" fill="#F7F6F0"></path>
                <path d="M1267.37145,2265.64209 C1395.66926,2265.64209 1407.90993,2432.5814 1395.66926,2505.55235 C1383.4286,2578.52331 1161.81447,2611.65794 1073.38941,2537.39163 C984.964354,2463.12531 1139.07364,2265.64209 1267.37145,2265.64209 Z" id="Rectangle-Copy-5" fill="#F7F5EA" transform="translate(1223.321419, 2422.465808) rotate(97.000000) translate(-1223.321419, -2422.465808) "></path>
                <path d="M1088.91888,830.415142 C1134.32353,815.053255 1126.91604,769.330763 1078.17526,769.330763 C1029.43448,769.330763 1043.51423,845.777029 1088.91888,830.415142 Z" id="Oval" fill="#F4F6F8" transform="translate(1083.408034, 800.892861) rotate(-20.000000) translate(-1083.408034, -800.892861) "></path>
                <path d="M175.550886,2852.49575 C192.920783,2850.58533 218.004428,2830.93107 230.687887,2824.49575 C345.08119,2766.45502 283.995703,2563.62641 160.163348,2619.69958 C22.6009695,2681.98992 1.52027104,2871.63638 175.550886,2852.49575 Z" id="Oval-Copy" fill="#F4F6F8"></path>
                <path d="M356.703928,622.84614 C360.99474,593.531136 308.233879,590.555228 292.166402,599.356402 C276.784466,607.782062 286.394847,644.860747 318.776174,647.05914 C348.90008,649.104275 353.228464,646.590657 356.703928,622.84614 Z" id="Oval-Copy-2" fill="#6C78FF" opacity="0.522879464" transform="translate(320.975596, 621.312511) scale(-1, 1) translate(-320.975596, -621.312511) "></path>
                <path d="M1160.70393,2018.84614 C1164.99474,1989.53114 1112.23388,1986.55523 1096.1664,1995.3564 C1080.78447,2003.78206 1090.39485,2040.86075 1122.77617,2043.05914 C1152.90008,2045.10427 1157.22846,2042.59066 1160.70393,2018.84614 Z" id="Oval-Copy-3" fill="#6C78FF" opacity="0.522879464" transform="translate(1124.975596, 2017.312511) scale(-1, 1) translate(-1124.975596, -2017.312511) "></path>
                <path d="M336.703928,2478.84614 C340.99474,2449.53114 288.233879,2446.55523 272.166402,2455.3564 C256.784466,2463.78206 266.394847,2500.86075 298.776174,2503.05914 C328.90008,2505.10427 333.228464,2502.59066 336.703928,2478.84614 Z" id="Oval-Copy-4" fill="#FFD47C" opacity="0.522879464" transform="translate(300.975596, 2477.312511) scale(-1, 1) translate(-300.975596, -2477.312511) "></path>
                <path d="M352.683839,1398.45255 C358.170261,1361.1299 290.707873,1357.3411 270.163281,1368.54639 C250.495252,1379.27359 262.783514,1426.48064 304.187722,1429.27954 C342.70549,1431.88332 348.239955,1428.68309 352.683839,1398.45255 Z" id="Oval-Copy-7" fill="#FFE9BB" opacity="0.975669643" transform="translate(307.000000, 1396.500000) scale(-1, 1) translate(-307.000000, -1396.500000) "></path>
            </g>
        </g>
    </g>
</svg>